<svg width="119" height="119" viewBox="0 0 119 119" fill="none" xmlns="http://www.w3.org/2000/svg">
<path d="M34.7083 84.2917H69.4167V74.375H34.7083V84.2917ZM34.7083 64.4583H84.2917V54.5417H34.7083V64.4583ZM34.7083 44.625H84.2917V34.7083H34.7083V44.625ZM24.7917 104.125C22.0646 104.125 19.73 103.154 17.788 101.212C15.846 99.27 14.875 96.9354 14.875 94.2083V24.7917C14.875 22.0646 15.846 19.73 17.788 17.788C19.73 15.846 22.0646 14.875 24.7917 14.875H94.2083C96.9354 14.875 99.27 15.846 101.212 17.788C103.154 19.73 104.125 22.0646 104.125 24.7917V94.2083C104.125 96.9354 103.154 99.27 101.212 101.212C99.27 103.154 96.9354 104.125 94.2083 104.125H24.7917ZM24.7917 94.2083H94.2083V24.7917H24.7917V94.2083Z" fill="#A5895E"/>
</svg>
