<svg width="125" height="125" viewBox="0 0 125 125" fill="none" xmlns="http://www.w3.org/2000/svg">
<path d="M33.8548 104.167C25.9555 104.167 19.2064 101.432 13.6074 95.9635C8.00846 90.4947 5.20898 83.8107 5.20898 75.9114C5.20898 69.1405 7.24891 63.1076 11.3288 57.8124C15.4086 52.5173 20.7472 49.1319 27.3444 47.6562C29.5145 39.6701 33.8548 33.203 40.3652 28.2551C46.8756 23.3072 54.2541 20.8333 62.5006 20.8333C72.6569 20.8333 81.2723 24.3706 88.347 31.4452C95.4216 38.5199 98.959 47.1353 98.959 57.2916C104.949 57.986 109.918 60.5685 113.868 65.039C117.817 69.5095 119.792 74.7395 119.792 80.7291C119.792 87.2395 117.514 92.7734 112.956 97.3306C108.399 101.888 102.865 104.167 96.3548 104.167H33.8548ZM33.8548 93.7499H96.3548C100.001 93.7499 103.082 92.4912 105.6 89.9739C108.117 87.4565 109.376 84.3749 109.376 80.7291C109.376 77.0832 108.117 74.0017 105.6 71.4843C103.082 68.9669 100.001 67.7083 96.3548 67.7083H88.5423V57.2916C88.5423 50.0867 86.0032 43.9452 80.9251 38.8671C75.847 33.789 69.7055 31.2499 62.5006 31.2499C55.2958 31.2499 49.1543 33.789 44.0762 38.8671C38.998 43.9452 36.459 50.0867 36.459 57.2916H33.8548C28.8201 57.2916 24.5232 59.0711 20.9642 62.6301C17.4052 66.1892 15.6256 70.486 15.6256 75.5207C15.6256 80.5555 17.4052 84.8523 20.9642 88.4114C24.5232 91.9704 28.8201 93.7499 33.8548 93.7499Z" fill="#A5895E"/>
</svg>
