<svg width="54" height="54" viewBox="0 0 54 54" fill="none" xmlns="http://www.w3.org/2000/svg">
<path d="M11.25 42.75H14.4562L36.45 20.7562L33.2437 17.55L11.25 39.5438V42.75ZM6.75 47.25V37.6875L36.45 8.04375C36.9 7.63125 37.3969 7.3125 37.9406 7.0875C38.4844 6.8625 39.0562 6.75 39.6562 6.75C40.2562 6.75 40.8375 6.8625 41.4 7.0875C41.9625 7.3125 42.45 7.65 42.8625 8.1L45.9562 11.25C46.4062 11.6625 46.7344 12.15 46.9406 12.7125C47.1469 13.275 47.25 13.8375 47.25 14.4C47.25 15 47.1469 15.5719 46.9406 16.1156C46.7344 16.6594 46.4062 17.1562 45.9562 17.6062L16.3125 47.25H6.75ZM34.8187 19.1812L33.2437 17.55L36.45 20.7562L34.8187 19.1812Z" fill="black"/>
</svg>
