<svg width="130" height="130" viewBox="0 0 130 130" fill="none" xmlns="http://www.w3.org/2000/svg">
<path d="M48.7493 119.167V47.5312C40.5341 45.3645 33.9664 40.828 29.0462 33.9218C24.1261 27.0155 21.666 19.3194 21.666 10.8333H32.4993C32.4993 18.3263 34.9143 24.7135 39.7441 29.9947C44.574 35.276 50.7355 37.9166 58.2285 37.9166H71.7702C74.4785 37.9166 77.0063 38.4131 79.3535 39.4062C81.7007 40.3992 83.8223 41.8437 85.7181 43.7395L110.229 68.2499L102.645 75.8332L81.2494 54.4374V119.167H70.416V86.6666H59.5827V119.167H48.7493ZM57.3483 29.3176C55.2268 27.1961 54.166 24.6458 54.166 21.6666C54.166 18.6874 55.2268 16.1371 57.3483 14.0155C59.4698 11.894 62.0202 10.8333 64.9994 10.8333C67.9785 10.8333 70.5289 11.894 72.6504 14.0155C74.7719 16.1371 75.8327 18.6874 75.8327 21.6666C75.8327 24.6458 74.7719 27.1961 72.6504 29.3176C70.5289 31.4392 67.9785 32.4999 64.9994 32.4999C62.0202 32.4999 59.4698 31.4392 57.3483 29.3176Z" fill="#A5895E"/>
</svg>
