<svg width="124" height="124" viewBox="0 0 124 124" fill="none" xmlns="http://www.w3.org/2000/svg">
<path d="M48.2431 110.631C44.4973 106.885 42.6243 102.3 42.6243 96.875C42.6243 92.3972 43.9591 88.4576 46.6285 85.0562C49.298 81.6549 52.6993 79.3514 56.8327 78.1458V67.1667H25.8327V46.5H12.916V10.3333H49.0827V46.5H36.166V56.8333H87.8327V45.8542C83.6993 44.6486 80.298 42.3451 77.6285 38.9437C74.9591 35.5424 73.6243 31.6028 73.6243 27.125C73.6243 21.7 75.4973 17.1146 79.2431 13.3687C82.9889 9.62292 87.5743 7.75 92.9993 7.75C98.4243 7.75 103.01 9.62292 106.756 13.3687C110.501 17.1146 112.374 21.7 112.374 27.125C112.374 31.6028 111.04 35.5424 108.37 38.9437C105.701 42.3451 102.299 44.6486 98.166 45.8542V67.1667H67.166V78.1458C71.2993 79.3514 74.7007 81.6549 77.3702 85.0562C80.0396 88.4576 81.3743 92.3972 81.3743 96.875C81.3743 102.3 79.5014 106.885 75.7556 110.631C72.0098 114.377 67.4243 116.25 61.9993 116.25C56.5743 116.25 51.9889 114.377 48.2431 110.631ZM99.3931 33.5187C101.158 31.7535 102.041 29.6222 102.041 27.125C102.041 24.6278 101.158 22.4965 99.3931 20.7312C97.6278 18.966 95.4966 18.0833 92.9993 18.0833C90.5021 18.0833 88.3709 18.966 86.6056 20.7312C84.8403 22.4965 83.9577 24.6278 83.9577 27.125C83.9577 29.6222 84.8403 31.7535 86.6056 33.5187C88.3709 35.284 90.5021 36.1667 92.9993 36.1667C95.4966 36.1667 97.6278 35.284 99.3931 33.5187ZM23.2493 36.1667H38.7493V20.6667H23.2493V36.1667ZM68.3931 103.269C70.1584 101.503 71.041 99.3722 71.041 96.875C71.041 94.3778 70.1584 92.2465 68.3931 90.4812C66.6278 88.716 64.4966 87.8333 61.9993 87.8333C59.5021 87.8333 57.3709 88.716 55.6056 90.4812C53.8403 92.2465 52.9577 94.3778 52.9577 96.875C52.9577 99.3722 53.8403 101.503 55.6056 103.269C57.3709 105.034 59.5021 105.917 61.9993 105.917C64.4966 105.917 66.6278 105.034 68.3931 103.269Z" fill="#A5895E"/>
</svg>
