<svg width="122" height="122" viewBox="0 0 122 122" fill="none" xmlns="http://www.w3.org/2000/svg">
<path d="M30.5007 111.833C27.7048 111.833 25.3114 110.838 23.3204 108.847C21.3295 106.856 20.334 104.462 20.334 101.667V50.8333C20.334 48.0374 21.3295 45.644 23.3204 43.653C25.3114 41.6621 27.7048 40.6666 30.5007 40.6666H35.584V30.4999C35.584 23.468 38.0621 17.4739 43.0184 12.5176C47.9746 7.56138 53.9687 5.08325 61.0007 5.08325C68.0326 5.08325 74.0267 7.56138 78.9829 12.5176C83.9392 17.4739 86.4173 23.468 86.4173 30.4999V40.6666H91.5007C94.2965 40.6666 96.6899 41.6621 98.6809 43.653C100.672 45.644 101.667 48.0374 101.667 50.8333V101.667C101.667 104.462 100.672 106.856 98.6809 108.847C96.6899 110.838 94.2965 111.833 91.5007 111.833H30.5007ZM30.5007 101.667H91.5007V50.8333H30.5007V101.667ZM68.1809 83.4301C70.1718 81.4392 71.1673 79.0458 71.1673 76.2499C71.1673 73.4541 70.1718 71.0607 68.1809 69.0697C66.1899 67.0787 63.7965 66.0833 61.0007 66.0833C58.2048 66.0833 55.8114 67.0787 53.8204 69.0697C51.8295 71.0607 50.834 73.4541 50.834 76.2499C50.834 79.0458 51.8295 81.4392 53.8204 83.4301C55.8114 85.4211 58.2048 86.4166 61.0007 86.4166C63.7965 86.4166 66.1899 85.4211 68.1809 83.4301ZM45.7507 40.6666H76.2507V30.4999C76.2507 26.2638 74.768 22.6631 71.8027 19.6978C68.8375 16.7326 65.2368 15.2499 61.0007 15.2499C56.7645 15.2499 53.1638 16.7326 50.1986 19.6978C47.2333 22.6631 45.7507 26.2638 45.7507 30.4999V40.6666Z" fill="#A5895E"/>
</svg>
