<svg width="128" height="128" viewBox="0 0 128 128" fill="none" xmlns="http://www.w3.org/2000/svg">
<path d="M26.6673 117.333V106.667H58.6673V85.3334H48.0007C40.6229 85.3334 34.334 82.7334 29.134 77.5334C23.934 72.3334 21.334 66.0445 21.334 58.6667C21.334 53.3334 22.8007 48.4223 25.734 43.9334C28.6673 39.4445 32.6229 36.1779 37.6007 34.1334C38.4007 27.4667 41.3118 21.889 46.334 17.4001C51.3562 12.9112 57.2451 10.6667 64.0007 10.6667C70.7562 10.6667 76.6451 12.9112 81.6673 17.4001C86.6896 21.889 89.6007 27.4667 90.4007 34.1334C95.3784 36.1779 99.334 39.4445 102.267 43.9334C105.201 48.4223 106.667 53.3334 106.667 58.6667C106.667 66.0445 104.067 72.3334 98.8673 77.5334C93.6673 82.7334 87.3784 85.3334 80.0007 85.3334H69.334V106.667H101.334V117.333H26.6673ZM48.0007 74.6667H80.0007C84.4451 74.6667 88.2229 73.1112 91.334 70.0001C94.4451 66.889 96.0007 63.1112 96.0007 58.6667C96.0007 55.4667 95.0896 52.5334 93.2673 49.8667C91.4451 47.2001 89.0673 45.2445 86.134 44.0001L80.534 41.6001L79.734 35.4667C79.2007 31.4667 77.4451 28.1112 74.4673 25.4001C71.4895 22.689 68.0007 21.3334 64.0007 21.3334C60.0007 21.3334 56.5118 22.689 53.534 25.4001C50.5562 28.1112 48.8007 31.4667 48.2673 35.4667L47.4673 41.6001L41.8673 44.0001C38.934 45.2445 36.5562 47.2001 34.734 49.8667C32.9118 52.5334 32.0007 55.4667 32.0007 58.6667C32.0007 63.1112 33.5562 66.889 36.6673 70.0001C39.7784 73.1112 43.5562 74.6667 48.0007 74.6667Z" fill="#A5895E"/>
</svg>
