<svg width="152" height="152" viewBox="0 0 152 152" fill="none" xmlns="http://www.w3.org/2000/svg">
<path d="M58.109 68.5583C53.1479 63.5971 50.6673 57.6333 50.6673 50.6666C50.6673 43.6999 53.1479 37.736 58.109 32.7749C63.0701 27.8138 69.034 25.3333 76.0006 25.3333C82.9673 25.3333 88.9312 27.8138 93.8923 32.7749C98.8534 37.736 101.334 43.6999 101.334 50.6666C101.334 57.6333 98.8534 63.5971 93.8923 68.5583C88.9312 73.5194 82.9673 75.9999 76.0006 75.9999C69.034 75.9999 63.0701 73.5194 58.109 68.5583ZM25.334 126.667V108.933C25.334 105.344 26.2576 102.046 28.1048 99.0374C29.952 96.0291 32.4062 93.7333 35.4673 92.1499C42.0118 88.8777 48.6618 86.4235 55.4173 84.7874C62.1729 83.1513 69.034 82.3333 76.0006 82.3333C82.9673 82.3333 89.8284 83.1513 96.584 84.7874C103.34 86.4235 109.99 88.8777 116.534 92.1499C119.595 93.7333 122.049 96.0291 123.896 99.0374C125.744 102.046 126.667 105.344 126.667 108.933V126.667H25.334ZM38.0007 114H114.001V108.933C114.001 107.772 113.71 106.717 113.13 105.767C112.549 104.817 111.784 104.078 110.834 103.55C105.134 100.7 99.3812 98.5624 93.5757 97.1374C87.7701 95.7124 81.9118 94.9999 76.0006 94.9999C70.0895 94.9999 64.2312 95.7124 58.4257 97.1374C52.6201 98.5624 46.8673 100.7 41.1673 103.55C40.2173 104.078 39.452 104.817 38.8715 105.767C38.2909 106.717 38.0007 107.772 38.0007 108.933V114ZM84.9465 59.6124C87.427 57.1319 88.6673 54.1499 88.6673 50.6666C88.6673 47.1833 87.427 44.2013 84.9465 41.7208C82.4659 39.2402 79.484 37.9999 76.0006 37.9999C72.5173 37.9999 69.5354 39.2402 67.0548 41.7208C64.5743 44.2013 63.334 47.1833 63.334 50.6666C63.334 54.1499 64.5743 57.1319 67.0548 59.6124C69.5354 62.093 72.5173 63.3333 76.0006 63.3333C79.484 63.3333 82.4659 62.093 84.9465 59.6124Z" fill="#A5895E"/>
</svg>
