<svg width="537" height="537" viewBox="0 0 537 537" fill="none" xmlns="http://www.w3.org/2000/svg">
<g clip-path="url(#clip0_1119_1298)">
<path d="M489.432 158.976C489.432 118.231 458.512 84.7184 418.856 80.6022C407.726 50.5877 378.921 29.1532 345.025 29.1532C330.187 29.1532 316.359 33.3303 304.514 40.4579C291.044 16.3351 265.294 0.000488281 235.697 0.000488281C196.458 0.000488281 164.007 28.7182 157.985 66.2607C154.782 65.8694 151.545 65.5991 148.238 65.5991C104.717 65.5991 69.429 100.879 69.429 144.408C69.429 146.54 69.5855 148.629 69.7511 150.717C47.6823 164.685 32.9922 189.243 32.9922 217.291C32.9922 242.084 44.4625 264.17 62.3624 278.617C62.2841 280.035 62.1449 281.444 62.1449 282.881C62.1449 326.402 97.425 361.69 140.954 361.69C153.999 361.69 166.269 358.47 177.104 352.866C192.115 363.648 213.611 377.137 224.018 374.448C224.018 374.448 227.891 434.425 227.055 449.655C225.463 478.634 216.769 510.894 210.651 537.001H305.404C305.404 537.001 291.436 478.8 290.826 459.367C290.218 439.934 296.901 404.15 296.901 404.15L329.77 370.15C342.423 378.8 357.704 383.717 374.187 383.717C414.932 383.717 448.445 352.719 452.561 313.061C482.575 301.931 504.01 273.048 504.01 239.152C504.01 219.136 496.491 200.931 484.202 187.025C487.527 178.304 489.432 168.871 489.432 158.976ZM195.309 339.855C201.626 333.824 206.927 326.776 210.973 318.952L226.445 351.368C226.437 351.369 218.022 355.085 195.309 339.855ZM253.163 359.871C245.156 361.324 231.52 336.67 221.842 316.628C232.573 322.102 244.687 325.252 257.566 325.252C260.873 325.252 264.119 324.983 267.321 324.583C264.832 340.621 260.447 358.539 253.163 359.871ZM287.181 375.648C268.661 380.791 279.748 342.431 285.057 320.222C288.895 318.796 292.611 317.116 296.144 315.123C298.276 331.309 305.307 345.911 315.725 357.459C306.7 365.476 296.309 373.116 287.181 375.648Z" fill="#AD9561"/>
</g>
<defs>
<clipPath id="clip0_1119_1298">
<rect width="537" height="537" fill="white"/>
</clipPath>
</defs>
</svg>
